<svg xmlns="http://www.w3.org/2000/svg" viewBox="0 0 31.46 35.67"><defs><style>.cls-1{fill:#383838;}</style></defs><title>자산 2</title><g id="레이어_2" data-name="레이어 2"><g id="_迹_1" data-name="卵迹_1"><path class="cls-1" d="M30.71,35.67a.75.75,0,0,1-.75-.75V30.75a9.28,9.28,0,0,0-9.27-9.27H10.77A9.28,9.28,0,0,0,1.5,30.75v4.17a.76.76,0,0,1-.75.75A.76.76,0,0,1,0,34.92V30.75A10.79,10.79,0,0,1,10.77,20h9.92A10.79,10.79,0,0,1,31.46,30.75v4.17A.76.76,0,0,1,30.71,35.67Z"/><path class="cls-1" d="M15.73,17.73a8.87,8.87,0,1,1,8.86-8.86A8.88,8.88,0,0,1,15.73,17.73Zm0-16.23a7.37,7.37,0,1,0,7.36,7.37A7.38,7.38,0,0,0,15.73,1.5Z"/></g></g></svg>