<svg xmlns="http://www.w3.org/2000/svg" viewBox="0 0 100.21 100.21"><defs><style>.cls-1{fill:#e5edf5;stroke:#e5edf5;stroke-miterlimit:10;}.cls-2{fill:#fff;}.cls-3{fill:#ffab00;}.cls-4{fill:#414042;}.cls-5{fill:#4192b8;}</style></defs><title>office</title><g id="레이어_2" data-name="레이어 2"><g id="레이어_1-2" data-name="레이어 1"><path class="cls-1" d="M99.71,50.11A49.61,49.61,0,1,1,50.11.5,49.6,49.6,0,0,1,99.71,50.11Z"/><polygon class="cls-2" points="40.67 28.3 40.67 22.92 30.35 22.92 30.35 28.3 26.36 28.3 26.36 77.3 38.91 77.3 61.3 77.3 73.86 77.3 73.86 28.3 40.67 28.3"/><path class="cls-2" d="M75.36,78.8H24.86v-52h4V21.42H42.17V26.8H75.36Zm-47.5-3h44.5v-46H39.17V24.42H31.85V29.8h-4Z"/><polyline class="cls-3" points="31.85 29.8 31.85 24.42 39.17 24.42 39.17 29.85"/><polygon class="cls-4" points="40.67 29.85 37.67 29.85 37.67 25.92 33.35 25.92 33.35 29.8 30.35 29.8 30.35 22.92 40.67 22.92 40.67 29.85"/><rect class="cls-2" x="27.86" y="29.8" width="44.5" height="46"/><path class="cls-4" d="M73.86,77.3H26.36v-49h47.5Zm-44.5-3h41.5v-43H29.36Z"/><rect class="cls-3" x="40.41" y="62.92" width="19.4" height="12.88"/><path class="cls-4" d="M61.31,77.3H38.91V61.42h22.4Zm-19.4-3h16.4V64.42H41.91Z"/><rect class="cls-5" x="32.31" y="34.42" width="35.59" height="3"/><rect class="cls-5" x="32.31" y="41.17" width="35.59" height="3"/><rect class="cls-5" x="32.31" y="47.92" width="35.59" height="3"/><rect class="cls-5" x="32.31" y="54.67" width="35.59" height="3"/><line class="cls-2" x1="36.43" y1="62.92" x2="63.78" y2="62.92"/><rect class="cls-4" x="36.43" y="61.42" width="27.35" height="3"/></g></g></svg>