<svg xmlns="http://www.w3.org/2000/svg" viewBox="0 0 100.21 100.21"><defs><style>.cls-1{fill:#e5edf5;stroke:#e5edf5;}.cls-1,.cls-6{stroke-miterlimit:10;}.cls-2{fill:#231f20;}.cls-3{fill:#fff;}.cls-4{fill:#414042;}.cls-5{opacity:0.7;}.cls-6{fill:#ffab00;stroke:#fff;}</style></defs><title>pub</title><g id="레이어_2" data-name="레이어 2"><g id="레이어_1-2" data-name="레이어 1"><path class="cls-1" d="M99.71,50.11A49.61,49.61,0,1,1,50.11.5,49.6,49.6,0,0,1,99.71,50.11Z"/><polygon class="cls-2" points="78.71 73.66 65.39 73.66 65.39 70.66 75.71 70.66 75.71 42.93 65.39 42.93 65.39 39.93 78.71 39.93 78.71 73.66"/><rect class="cls-3" x="27.83" y="32.62" width="36.06" height="45.37"/><path class="cls-4" d="M65.39,79.49H26.33V31.12H65.39Zm-36.06-3H62.39V34.12H29.33Z"/><g class="cls-5"><rect class="cls-6" x="53.11" y="41.53" width="3" height="31.56"/><rect class="cls-6" x="44.36" y="41.53" width="3" height="31.56"/><rect class="cls-6" x="35.61" y="41.53" width="3" height="31.56"/></g><path class="cls-3" d="M61.8,22.22a7,7,0,0,0-4,1.24,7,7,0,0,0-8,0,7,7,0,0,0-8,0,7,7,0,0,0-7.95,0A7,7,0,1,0,34,35a7,7,0,0,0,7.95,0,7,7,0,0,0,8,0,7,7,0,0,0,8,0,7,7,0,1,0,4-12.78Z"/><path class="cls-4" d="M61.8,37.74a8.43,8.43,0,0,1-4-1,8.62,8.62,0,0,1-8,0,8.64,8.64,0,0,1-8,0,8.62,8.62,0,0,1-7.95,0,8.52,8.52,0,1,1,0-15,8.59,8.59,0,0,1,7.95,0,8.61,8.61,0,0,1,8,0,8.59,8.59,0,0,1,8,0,8.51,8.51,0,1,1,4,16Zm-4-4.56.85.59a5.52,5.52,0,1,0,0-9.07l-.85.59L57,24.7a5.57,5.57,0,0,0-6.25,0l-.85.59L49,24.7a5.57,5.57,0,0,0-6.25,0l-.85.59-.85-.59a5.57,5.57,0,0,0-6.25,0l-.86.59-.85-.59a5.44,5.44,0,0,0-3.12-1,5.51,5.51,0,0,0,0,11,5.43,5.43,0,0,0,3.12-1l.85-.59.86.59a5.57,5.57,0,0,0,6.25,0l.85-.59.85.59a5.57,5.57,0,0,0,6.25,0l.86-.59.85.59a5.57,5.57,0,0,0,6.25,0Z"/></g></g></svg>