<svg xmlns="http://www.w3.org/2000/svg" viewBox="0 0 100.21 100.21"><defs><style>.cls-1{fill:#e5edf5;stroke:#e5edf5;stroke-miterlimit:10;}.cls-2{fill:#fff;}.cls-3{fill:#ffab00;}.cls-4{fill:#414042;}</style></defs><title>resturant</title><g id="레이어_2" data-name="레이어 2"><g id="레이어_1-2" data-name="레이어 1"><circle class="cls-1" cx="50.11" cy="50.11" r="49.61" transform="translate(-15.36 77.22) rotate(-67.5)"/><circle class="cls-2" cx="50.11" cy="50.11" r="33"/><path class="cls-2" d="M50.11,84.61a34.51,34.51,0,1,1,34.5-34.5A34.55,34.55,0,0,1,50.11,84.61Zm0-66a31.51,31.51,0,1,0,31.5,31.51A31.55,31.55,0,0,0,50.11,18.6Z"/><circle class="cls-2" cx="50.11" cy="50.11" r="31.5" transform="translate(-7.31 91.63) rotate(-80.87)"/><path class="cls-3" d="M50.11,76.74A26.63,26.63,0,1,1,76.74,50.11,26.66,26.66,0,0,1,50.11,76.74Zm0-50.26A23.63,23.63,0,1,0,73.74,50.11,23.66,23.66,0,0,0,50.11,26.48Z"/><path class="cls-4" d="M50.11,83.11a33,33,0,1,1,33-33A33,33,0,0,1,50.11,83.11Zm0-63a30,30,0,1,0,30,30A30,30,0,0,0,50.11,20.1Z"/><path class="cls-4" d="M48.1,38.54c0,3.71-2.37,6.72-5.3,6.72s-5.29-3-5.29-6.72,2.37-6.72,5.29-6.72S48.1,34.83,48.1,38.54Z"/><path class="cls-4" d="M42.8,46.76c-3.74,0-6.79-3.69-6.79-8.22s3.05-8.22,6.79-8.22,6.8,3.69,6.8,8.22S46.55,46.76,42.8,46.76Zm0-13.44c-2,0-3.79,2.39-3.79,5.22s1.74,5.22,3.79,5.22,3.8-2.39,3.8-5.22S44.86,33.32,42.8,33.32Z"/><rect class="cls-4" x="41.3" y="43.55" width="3" height="26.65"/><rect class="cls-4" x="53" y="31.31" width="3" height="39.1"/><rect class="cls-4" x="57.23" y="31.31" width="3" height="39.1"/></g></g></svg>