<svg xmlns="http://www.w3.org/2000/svg" viewBox="0 0 100.21 100.21"><defs><style>.cls-1{fill:#e5edf5;stroke:#e5edf5;stroke-miterlimit:10;}.cls-2{fill:#fff;}.cls-3{fill:#414042;}.cls-4{fill:#ffab00;}.cls-5{fill:#33a3dc;}</style></defs><title>studio</title><g id="레이어_2" data-name="레이어 2"><g id="레이어_1-2" data-name="레이어 1"><path class="cls-1" d="M99.71,50.11A49.61,49.61,0,1,1,50.11.5a49.6,49.6,0,0,1,49.6,49.61"/><polygon class="cls-2" points="76.16 33.68 76.16 26.77 59.72 26.77 59.72 33.68 20.04 33.68 20.04 73.44 80.17 73.44 80.17 33.68 76.16 33.68"/><rect class="cls-3" x="61.22" y="28.27" width="13.44" height="10.31"/><path class="cls-3" d="M76.16,40.08H59.72V26.77H76.16Zm-13.44-3H73.16V29.77H62.72Z"/><rect class="cls-2" x="21.54" y="35.18" width="57.14" height="36.76"/><path class="cls-3" d="M80.17,73.44H20V33.68H80.17ZM23,70.44H77.17V36.68H23Z"/><rect class="cls-4" x="62.19" y="40.05" width="11.08" height="5.97"/><path class="cls-2" d="M57.69,53.56A14.51,14.51,0,1,1,43.18,39.05,14.51,14.51,0,0,1,57.69,53.56"/><path class="cls-3" d="M43.18,69.57a16,16,0,1,1,16-16,16,16,0,0,1-16,16m0-29a13,13,0,1,0,13,13,13,13,0,0,0-13-13"/><path class="cls-5" d="M53,53.56a9.86,9.86,0,1,1-9.86-9.85A9.86,9.86,0,0,1,53,53.56"/><path class="cls-2" d="M41.05,50.19a2.38,2.38,0,1,1-2.37-2.38,2.38,2.38,0,0,1,2.37,2.38"/><path class="cls-3" d="M59.32,65.31A3.33,3.33,0,1,1,56,62a3.33,3.33,0,0,1,3.33,3.33"/></g></g></svg>