<svg xmlns="http://www.w3.org/2000/svg" viewBox="0 0 100.21 100.21"><defs><style>.cls-1{fill:#e5edf5;stroke:#e5edf5;stroke-miterlimit:10;}.cls-2{fill:#fff;}.cls-3{fill:#ffab00;}.cls-4{fill:#414042;}</style></defs><title>house</title><g id="레이어_2" data-name="레이어 2"><g id="레이어_1-2" data-name="레이어 1"><circle class="cls-1" cx="50.11" cy="50.11" r="49.61" transform="translate(-10.17 87.36) rotate(-76.72)"/><polygon class="cls-2" points="49.81 20.34 23.67 40.62 23.67 79.88 30.62 79.88 48.51 79.88 75.94 79.88 75.94 40.62 49.81 20.34"/><polygon class="cls-2" points="75.04 78.38 25.77 78.38 25.77 41.34 50.41 22.26 75.04 41.34 75.04 78.38"/><rect class="cls-3" x="33.05" y="51.37" width="14.32" height="9.87"/><path class="cls-4" d="M76.54,79.88H24.27V40.6L50.41,20.37,76.54,40.6Zm-49.27-3H73.54V42.07L50.41,24.16,27.27,42.07Z"/><path class="cls-4" d="M49.11,79.88H31.22v-30H49.11Zm-14.89-3H46.11v-24H34.22Z"/><rect class="cls-4" x="54.64" y="51.37" width="14.89" height="13.7"/><path class="cls-4" d="M71,66.57H53.14V49.87H71Zm-14.89-3H68V52.87H56.14Z"/></g></g></svg>