<svg xmlns="http://www.w3.org/2000/svg" viewBox="0 0 100.21 100.21"><defs><style>.cls-1{fill:#e5edf5;stroke:#e5edf5;stroke-miterlimit:10;}.cls-2{fill:#4192b8;}.cls-3{fill:#ffab00;}</style></defs><title>rooftop</title><g id="레이어_2" data-name="레이어 2"><g id="레이어_1-2" data-name="레이어 1"><path class="cls-1" d="M99.71,50.11A49.61,49.61,0,1,1,50.11.5,49.6,49.6,0,0,1,99.71,50.11Z"/><rect class="cls-2" x="58.14" y="56.72" width="3.21" height="5.5"/><rect class="cls-2" x="66.17" y="56.81" width="3.21" height="5.5"/><rect class="cls-2" x="58.14" y="66.25" width="3.21" height="5.5"/><rect class="cls-2" x="66.17" y="66.25" width="3.21" height="5.5"/><polyline class="cls-3" points="34.04 63.89 32.77 62.39 35.25 56.72 38.06 57.66 38.06 61.05"/><path d="M73.4,50.11H26.82a.88.88,0,0,0-.81.94V77.51a.88.88,0,0,0,.81.94H73.4a.88.88,0,0,0,.8-.94V51.05A.88.88,0,0,0,73.4,50.11ZM34,72.78v3.78H27.62V52h25.7v2.83h-4a.88.88,0,0,0-.8,1V60.5h-4a.88.88,0,0,0-.8,1v4.72h-4a.88.88,0,0,0-.81.94v4.73h-4A.88.88,0,0,0,34,72.78Zm38.55,3.78H35.65V73.73h4a.88.88,0,0,0,.8-1V68.06h4a.88.88,0,0,0,.81-1V62.39h4a.88.88,0,0,0,.81-1V56.72h4a.88.88,0,0,0,.81-.94V52H72.59Z"/><path d="M65.37,63.33h4.81a.88.88,0,0,0,.81-.94V56.72a.88.88,0,0,0-.81-.94H65.37a.88.88,0,0,0-.81.94v5.67A.88.88,0,0,0,65.37,63.33Zm.8-5.66h3.21v3.78H66.17Z"/><path d="M65.37,72.78h4.81a.88.88,0,0,0,.81-.94V66.17a.89.89,0,0,0-.81-1H65.37a.89.89,0,0,0-.81,1v5.67A.88.88,0,0,0,65.37,72.78Zm.8-5.67h3.21v3.78H66.17Z"/><path d="M57.33,63.33h4.82a.88.88,0,0,0,.81-.94V56.72a.88.88,0,0,0-.81-.94H57.33a.88.88,0,0,0-.8.94v5.67A.88.88,0,0,0,57.33,63.33Zm.81-5.66h3.21v3.78H58.14Z"/><path d="M57.33,72.78h4.82a.88.88,0,0,0,.81-.94V66.17a.89.89,0,0,0-.81-1H57.33a.89.89,0,0,0-.8,1v5.67A.88.88,0,0,0,57.33,72.78Zm.81-5.67h3.21v3.78H58.14Z"/><path d="M39.17,64.21a1,1,0,0,0,.5-.88V56.72a.88.88,0,0,0-.81-.94H33.24a.81.81,0,0,0-.74.58,1.06,1.06,0,0,0,.17,1l1,1.22-2.64,3.11a1.06,1.06,0,0,0,0,1.34l2.41,2.83a.71.71,0,0,0,.56.28.73.73,0,0,0,.57-.28l2.65-3.11,1,1.22A.73.73,0,0,0,39.17,64.21Zm-1.11-3.16-.24-.27a.71.71,0,0,0-1.13,0L34,63.89l-1.27-1.5,2.64-3.11a1.06,1.06,0,0,0,0-1.34l-.23-.27h2.88Z"/><path d="M37.26,34V48.22h1.6V44.44h3.21v3.78h1.61V44.44h1.61V42.55H38.86V34Z"/><path d="M54.93,44.44h1.6v3.78h1.61V44.44h3.21v3.78H63V34H61.35v8.51H54.93Z"/><path d="M65.37,30.26h6.42a2.65,2.65,0,0,0,2.41-2.83,3,3,0,0,0-.7-2,2.2,2.2,0,0,0-1.71-.85h-.1a3.12,3.12,0,0,0-6.22,0h-.1A2.66,2.66,0,0,0,63,27.43a3,3,0,0,0,.7,2A2.2,2.2,0,0,0,65.37,30.26Zm0-3.78h.8a.88.88,0,0,0,.8-.94,1.63,1.63,0,1,1,3.21,0,.88.88,0,0,0,.81.94h.8a.73.73,0,0,1,.57.29,1,1,0,0,1,.23.66.88.88,0,0,1-.8.94H65.37a.74.74,0,0,1-.58-.28,1.08,1.08,0,0,1-.23-.66A.89.89,0,0,1,65.37,26.48Z"/><path d="M28.42,30.26h6.43a2.21,2.21,0,0,0,1.69-.82,3.05,3.05,0,0,0,.72-2,2.66,2.66,0,0,0-2.41-2.84h-.1a3.37,3.37,0,0,0-3.12-2.83,3.37,3.37,0,0,0-3.11,2.83h-.1a2.17,2.17,0,0,0-1.69.83,3.05,3.05,0,0,0-.72,2A2.65,2.65,0,0,0,28.42,30.26Zm-.56-3.5a.73.73,0,0,1,.56-.28h.8a.88.88,0,0,0,.81-.94,1.77,1.77,0,0,1,1.6-1.89,1.77,1.77,0,0,1,1.61,1.89.88.88,0,0,0,.8.94h.81a.89.89,0,0,1,.8.95,1,1,0,0,1-.25.67.69.69,0,0,1-.55.27H28.42a.88.88,0,0,1-.8-.94A1,1,0,0,1,27.86,26.76Z"/><path d="M41.27,28.37h8V35h1.61V28.37h8a.85.85,0,0,0,.79-.74,1,1,0,0,0-.46-1.06l-8.83-4.73a.72.72,0,0,0-.67,0l-8.83,4.73a1,1,0,0,0-.45,1.06A.84.84,0,0,0,41.27,28.37Zm8.84-4.63,5.12,2.74H45Z"/><path d="M67.78,38.77a2.65,2.65,0,0,1-2.41,2.83v1.89a2.66,2.66,0,0,1,2.41,2.84h1.6a2.65,2.65,0,0,1,2.41-2.84V41.6a2.65,2.65,0,0,1-2.41-2.83Zm.8,4.73a4.38,4.38,0,0,0-.81-1,4.38,4.38,0,0,0,.81-.95,4.63,4.63,0,0,0,.8.95A4.63,4.63,0,0,0,68.58,43.5Z"/><path d="M58.14,30.26H56.53a2.65,2.65,0,0,1-2.41,2.84V35a2.46,2.46,0,0,1,2.26,1.89H42.88v1.89H49.3v9.45h1.61V38.77h6.42v-1h.81A2.65,2.65,0,0,1,60.55,35V33.1A2.65,2.65,0,0,1,58.14,30.26Z"/><ellipse cx="57.33" cy="34.04" rx="0.81" ry="0.95"/><rect class="cls-1" x="52.82" y="29.07" width="7.42" height="7.2"/><rect class="cls-1" x="57.33" y="36.27" width="1.61" height="2.5"/><rect class="cls-1" x="64.56" y="37.52" width="7.89" height="9.28"/><rect class="cls-1" x="41.86" y="35.73" width="17.89" height="1"/></g></g></svg>