<svg xmlns="http://www.w3.org/2000/svg" viewBox="0 0 100.21 100.21"><defs><style>.cls-1{fill:#e5edf5;stroke:#e5edf5;stroke-miterlimit:10;}.cls-2{fill:#fff;}.cls-3{fill:#ffab00;}.cls-4{fill:#414042;}.cls-5{fill:#4192b8;}</style></defs><title>school</title><g id="레이어_2" data-name="레이어 2"><g id="레이어_1-2" data-name="레이어 1"><circle class="cls-1" cx="50.11" cy="50.11" r="49.61"/><polygon class="cls-2" points="65.09 51.28 65.09 38.27 52 38.27 52 33.92 69.43 27.3 49 19.54 49 22.2 49 22.2 49 38.27 35.12 38.27 35.12 51.28 21.71 51.28 21.71 81.35 35.12 81.35 65.09 81.35 78.5 81.35 78.5 51.28 65.09 51.28"/><path class="cls-2" d="M80,82.85H20.21V49.79H33.62v-13H47.5V17.36L73.65,27.3,53.5,35v1.82H66.59v13H80Zm-56.79-3H77V52.79H63.59v-13h-27v13H23.21ZM50.5,21.71V32.88L65.2,27.3Z"/><rect class="cls-3" x="23.21" y="52.79" width="53.79" height="27.06"/><path class="cls-4" d="M78.5,81.35H21.71V51.29H78.5Zm-53.79-3H75.5V54.29H24.71Z"/><rect class="cls-2" x="36.62" y="39.77" width="26.97" height="40.08"/><path class="cls-4" d="M65.09,81.35h-30V38.27h30Zm-27-3h24V41.27h-24Z"/><rect class="cls-4" x="49" y="22.2" width="3" height="17.57"/><polygon class="cls-5" points="50.5 32.88 65.2 27.3 50.5 21.71 50.5 32.88"/><path class="cls-4" d="M49,35.06V19.54L69.43,27.3Zm3-11.17v6.82l9-3.41Z"/><rect class="cls-5" x="42.47" y="45.48" width="3.03" height="3.03"/><rect class="cls-3" x="48.59" y="45.48" width="3.03" height="3.03"/><rect class="cls-4" x="54.72" y="45.48" width="3.03" height="3.03"/><rect class="cls-4" x="42.47" y="51.19" width="3.03" height="3.03"/><rect class="cls-4" x="48.59" y="51.19" width="3.03" height="3.03"/><rect class="cls-5" x="54.72" y="51.19" width="3.03" height="3.03"/><rect class="cls-3" x="42.47" y="56.9" width="3.03" height="3.03"/><rect class="cls-5" x="48.59" y="56.9" width="3.03" height="3.03"/><rect class="cls-4" x="54.72" y="56.9" width="3.03" height="3.03"/><rect class="cls-4" x="42.47" y="62.61" width="3.03" height="3.03"/><rect class="cls-4" x="48.59" y="62.61" width="3.03" height="3.03"/><rect class="cls-3" x="54.72" y="62.61" width="3.03" height="3.03"/><rect class="cls-5" x="28.63" y="59.08" width="3.03" height="3.03"/><rect class="cls-4" x="28.63" y="64.79" width="3.03" height="3.03"/><rect class="cls-2" x="28.63" y="70.5" width="3.03" height="3.03"/><rect class="cls-2" x="68.97" y="59.08" width="3.03" height="3.03"/><rect class="cls-4" x="68.97" y="64.79" width="3.03" height="3.03"/><rect class="cls-5" x="68.97" y="70.5" width="3.03" height="3.03"/></g></g></svg>