<svg xmlns="http://www.w3.org/2000/svg" xmlns:xlink="http://www.w3.org/1999/xlink" viewBox="0 0 79.43 79.43"><defs><style>.cls-1{fill:url(#linear-gradient);}</style><linearGradient id="linear-gradient" x1="76.41" y1="76.41" x2="3.03" y2="3.03" gradientUnits="userSpaceOnUse"><stop offset="0" stop-color="#03509f"/><stop offset="1" stop-color="#33a2db"/></linearGradient></defs><title>자산 1</title><g id="레이어_2" data-name="레이어 2"><g id="Layer_1" data-name="Layer 1"><path class="cls-1" d="M69.1,0H10.33A10.33,10.33,0,0,0,0,10.33V69.1A10.32,10.32,0,0,0,10.33,79.43H69.1A10.32,10.32,0,0,0,79.43,69.1V10.33A10.33,10.33,0,0,0,69.1,0Zm1.61,62.65a8.06,8.06,0,0,1-8.06,8.06H16.78a8.06,8.06,0,0,1-8.06-8.06V16.78a8.06,8.06,0,0,1,8.06-8.06H62.65a8.06,8.06,0,0,1,8.06,8.06Z"/></g></g></svg>