<svg xmlns="http://www.w3.org/2000/svg" viewBox="0 0 37.78 37.78"><defs><style>.cls-1{fill:#383838;}</style></defs><title>자산 1</title><g id="레이어_2" data-name="레이어 2"><g id="_迹_1" data-name="卵迹_1"><path class="cls-1" d="M15.37,30.74A15.37,15.37,0,1,1,30.74,15.37,15.39,15.39,0,0,1,15.37,30.74ZM15.37,3A12.37,12.37,0,1,0,27.74,15.37,12.39,12.39,0,0,0,15.37,3Z"/><path class="cls-1" d="M36.28,37.78a1.51,1.51,0,0,1-1.06-.44l-11.1-11.1a1.5,1.5,0,0,1,2.12-2.12l11.1,11.1a1.49,1.49,0,0,1,0,2.12A1.51,1.51,0,0,1,36.28,37.78Z"/></g></g></svg>