<svg xmlns="http://www.w3.org/2000/svg" viewBox="0 0 100.21 100.21"><defs><style>.cls-1{fill:#e5edf5;stroke:#e5edf5;stroke-miterlimit:10;}.cls-2{fill:#fff;}.cls-3{fill:#414042;}.cls-4{fill:#ffab00;}.cls-5{fill:#4192b8;}</style></defs><title>cafe</title><g id="레이어_2" data-name="레이어 2"><g id="레이어_1-2" data-name="레이어 1"><path class="cls-1" d="M99.71,50.11A49.61,49.61,0,1,1,50.1.5,49.61,49.61,0,0,1,99.71,50.11Z"/><path class="cls-2" d="M84.58,51.81,78.24,40.3H55a10.84,10.84,0,0,0,1.64-3.12,7.84,7.84,0,0,0,.6-15.49v-1H31.57V33.73a10.8,10.8,0,0,0,2.24,6.57H22L15.63,51.81h5.73V79.56h57.5V51.81Zm-24-22.42A4.84,4.84,0,0,1,57.18,34c0-.09,0-.17,0-.25V24.81A4.83,4.83,0,0,1,60.54,29.39Z"/><path class="cls-2" d="M80.36,81.06H19.86V53.31H13.09l8-14.51H31.17a12.5,12.5,0,0,1-1.1-5.07V19.15H58.7v1.39a9.34,9.34,0,0,1-1,18l-.12.29H79.13l8,14.51H80.36Zm-57.5-3h54.5V50.31H82L77.36,41.8H51.93l1.84-2.42a9.29,9.29,0,0,0,1.41-2.69l.31-.89.15,0,0-1.84c0-.07,0-.14,0-.21V22.15H33.07V33.73A9.37,9.37,0,0,0,35,39.38l1.84,2.42h-14l-4.69,8.51h4.69ZM62,29.41a6.31,6.31,0,0,1-4.4,6l-.46.16A6.35,6.35,0,0,0,62,29.41ZM58.7,27.93v2.92a3.3,3.3,0,0,0,0-2.92Zm-1.51-4.7.47.15A6.34,6.34,0,0,1,62,29.17,6.34,6.34,0,0,0,57.19,23.23Z"/><rect class="cls-2" x="22.86" y="48.67" width="54.5" height="29.39"/><path class="cls-3" d="M78.86,79.56H21.36V47.17h57.5Zm-54.5-3h51.5V50.17H24.36Z"/><polygon class="cls-2" points="82.04 50.31 18.17 50.31 22.86 41.8 77.36 41.8 82.04 50.31"/><rect class="cls-2" x="33.07" y="22.15" width="22.62" height="8.04"/><path class="cls-3" d="M33.07,30.19v3.54a9.32,9.32,0,0,0,4.66,8.06H51.05a9.33,9.33,0,0,0,4.65-8.06V30.19Z"/><path class="cls-3" d="M51.45,43.29H37.32L37,43.08a10.84,10.84,0,0,1-5.4-9.35V20.65H57.2V33.73a10.84,10.84,0,0,1-5.4,9.35Zm-13.3-3H50.62a7.85,7.85,0,0,0,3.58-6.56V23.65H34.57V33.73A7.85,7.85,0,0,0,38.15,40.29Z"/><rect class="cls-4" x="24.35" y="42.11" width="3" height="7.9"/><rect class="cls-4" x="31.29" y="42.11" width="3" height="7.9"/><rect class="cls-4" x="38.22" y="42.11" width="3" height="7.9"/><rect class="cls-4" x="45.16" y="42.11" width="3" height="7.9"/><rect class="cls-4" x="52.09" y="42.11" width="3" height="7.9"/><rect class="cls-4" x="59.02" y="42.11" width="3" height="7.9"/><rect class="cls-4" x="65.96" y="42.11" width="3" height="7.9"/><rect class="cls-4" x="72.89" y="42.11" width="3" height="7.9"/><path class="cls-3" d="M55.7,37.23v-3a4.84,4.84,0,0,0,0-9.68v-3a7.84,7.84,0,0,1,0,15.68Z"/><path class="cls-2" d="M64.58,59.43a6,6,0,0,0-6,6V78.06h12V65.41A6,6,0,0,0,64.58,59.43Z"/><path class="cls-3" d="M72.06,79.56h-15V65.41a7.48,7.48,0,1,1,15,0Zm-12-3h9V65.41a4.48,4.48,0,1,0-9,0Z"/><path class="cls-5" d="M36.55,61.8a3.29,3.29,0,0,0-6.58,0V68h6.58Z"/><path class="cls-5" d="M50.36,61.8a3.29,3.29,0,0,0-6.58,0V68h6.58Z"/><path class="cls-3" d="M84.58,51.81H15.63L22,40.3H78.24Zm-63.87-3H79.5l-3-5.51H23.74Z"/></g></g></svg>