<?xml version="1.0" encoding="utf-8"?>
<!-- Generator: Adobe Illustrator 22.1.0, SVG Export Plug-In . SVG Version: 6.00 Build 0)  -->
<svg version="1.1" id="Capa_1" xmlns="http://www.w3.org/2000/svg" xmlns:xlink="http://www.w3.org/1999/xlink" x="0px" y="0px"
	 viewBox="0 0 512 512" style="enable-background:new 0 0 512 512;" xml:space="preserve">
<style type="text/css">
	.st0{fill:#80DBFF;}
	.st1{fill:#4AB8F7;}
	.st2{fill:#2C4054;}
	.st3{fill:#576F87;}
	.st4{fill:#495F7A;}
	.st5{fill:#385068;}
	.st6{fill:#56718C;}
	.st7{fill:#253644;}
	.st8{fill:#FFFFFF;}
	.st9{fill:#DCE1EB;}
</style>
<rect x="-20" y="-19" class="st0" width="544" height="544"/>
<g>
	<g>
		<g>
			<g>
				<g>
					<g>
						<g>
							<g>
								<g>
									<circle class="st0" cx="-351" cy="197.5" r="256"/>
								</g>
							</g>
						</g>
					</g>
				</g>
			</g>
		</g>
	</g>
</g>
<path class="st1" d="M512,256c0-332-0.4-16.5-1.2-24.7L429,149.5l-26.6,62.9L306,116l-16.9,123.8L175,125.7L83,362.5l148.3,148.3
	c8.1,0.8,16.3,1.2,24.7,1.2C397.4,512,512,588,512,256z"/>
<g>
	<rect x="97.7" y="125.7" class="st2" width="77.3" height="33.3"/>
</g>
<g>
	<polygon class="st3" points="326,159 186,159 206,116 306,116 	"/>
</g>
<g>
	<polygon class="st4" points="306,116 255.6,116 255.6,159 326,159 	"/>
</g>
<g>
	<rect x="83" y="149.5" class="st4" width="346" height="213"/>
</g>
<g>
	<rect x="255.6" y="149.5" class="st5" width="173.4" height="213"/>
</g>
<g>
	<rect x="83" y="203.4" class="st3" width="346" height="105.1"/>
</g>
<g>
	<rect x="255.6" y="203.4" class="st6" width="173.4" height="105.1"/>
</g>
<g>
	<circle class="st2" cx="331" cy="256" r="103"/>
</g>
<g>
	<path class="st7" d="M331,153c-0.2,0-0.3,0-0.5,0v206c0.2,0,0.3,0,0.5,0c56.9,0,103-46.1,103-103S387.9,153,331,153z"/>
</g>
<g>
	<circle class="st4" cx="331" cy="256" r="58.5"/>
</g>
<g>
	<path class="st5" d="M331,197.5c-0.2,0-0.3,0-0.5,0v117c0.2,0,0.3,0,0.5,0c32.3,0,58.5-26.2,58.5-58.5S363.3,197.5,331,197.5z"/>
</g>
<g>
	<circle class="st8" cx="321" cy="243" r="18"/>
</g>
<g>
	<path class="st9" d="M339,243c0-6.5-3.4-12.1-8.5-15.3v30.6C335.6,255.1,339,249.5,339,243z"/>
</g>
<g>
	<circle class="st8" cx="293.4" cy="215.4" r="9.3"/>
</g>
<line class="st1" x1="622" y1="362.5" x2="583" y2="519.5"/>
<polygon class="st1" points="511.2,302 410,512 512,512 "/>
</svg>
