<?xml version="1.0" encoding="utf-8"?>
<!-- Generator: Adobe Illustrator 22.0.1, SVG Export Plug-In . SVG Version: 6.00 Build 0)  -->
<svg version="1.1" id="레이어_1" xmlns="http://www.w3.org/2000/svg" xmlns:xlink="http://www.w3.org/1999/xlink" x="0px"
	 y="0px" viewBox="0 0 435.3 132.8" style="enable-background:new 0 0 435.3 132.8;" xml:space="preserve">
<style type="text/css">
	.st0{fill:#221E1F;}
	.st1{fill:url(#SVGID_1_);}
</style>
<g>
	<g>
		<path class="st0" d="M233.8,20.7c4.1,3.7,7,8.2,9,13.4c1.9,5.2,2.7,10.3,2.2,15.4c-0.4,4.9-2,9.4-4.6,13.5
			c-2.7,4.1-6.7,7.2-12.2,9.4c-4.3,1.8-8.5,3.1-12.6,3.8c-4.2,0.7-8.7,1.3-13.8,1.8c-2.2,0.2-4.1,0.3-5.7,0.4
			c-1.5,0.1-3.3,0.1-5.4,0.2c-0.4,0-1.1,0-2.2,0c-1,0-1.7,0.1-2.2,0.2v33.1c-0.3,2-0.7,4.1-1.2,6.2c-0.5,2.1-1.7,3.8-3.8,5
			c-1.2,0.6-2.6,1-4.3,1.1c-1.7,0.1-3.3,0.1-4.6-0.2c-1.5-0.2-2.7-0.6-3.8-1.2c-1-0.6-1.8-1.6-2.5-3.1c-0.4-1-0.8-2.1-1.2-3.3
			c-0.4-1.2-0.6-2.7-0.6-4.6V23.4c0-0.7,0.1-1.4,0.2-2.1c0.1-0.6,0.2-1.3,0.3-1.9c0.2-0.5,0.4-1.1,0.5-1.8c0.1-0.6,0.3-1.2,0.5-1.8
			c0.2-0.5,0.5-1,0.7-1.4c0.3-0.4,0.6-0.8,1-1.1c0.5-0.5,1.4-1,2.5-1.4c1.1-0.4,2.8-0.6,5-0.6h0.3c3.3-0.2,7-0.4,11-0.6
			c4.1-0.2,7.4-0.1,10.1,0.2c1.5,0.2,2.9,0.3,4.2,0.4c1.3,0.1,2.5,0.1,3.7,0.2c1.3,0.1,2.6,0.2,3.8,0.3c1.3,0.1,2.6,0.3,3.8,0.5
			c1.1,0.2,2.1,0.4,3,0.5c0.9,0.1,1.8,0.3,2.8,0.5c0.9,0.2,1.8,0.4,2.8,0.6c1,0.2,1.9,0.6,2.8,1.1c2.2,0.6,4.1,1.4,5.6,2.4
			C230.7,18.5,232.2,19.5,233.8,20.7z M224.2,47.1c0.1-2.6-0.4-4.8-1.5-6.7c-1.1-1.9-2.7-3.5-4.7-4.8c-2-1.3-4.3-2.3-6.9-3
			c-2.6-0.7-5.1-1.3-7.7-1.6c-0.6,0-1.5,0-2.6-0.1c-1.1-0.1-2.3-0.1-3.6-0.2c-1.3-0.1-2.5-0.1-3.6-0.2c-1.1-0.1-2-0.1-2.6-0.1
			c-0.5-0.1-1.2-0.2-1.9-0.2c-0.7,0-1.6,0-2.6,0c0.1,3.3,0.2,6.5,0.2,9.5c0,3,0,6.3,0,9.8c-0.1,1.9-0.2,3.8-0.2,5.8s0,3.8,0,5.6
			l9.9-0.2c2.6,0,5.4-0.2,8.5-0.5c3.1-0.3,6-1,8.8-1.9c2.8-1,5.1-2.3,7.1-4.2C222.8,52.5,223.9,50.1,224.2,47.1z"/>
		<path class="st0" d="M278.3,63.2c0,3,0,6.3,0.1,10.1c0.1,3.7,0.1,7.6,0.1,11.6c0,4,0,7.9,0,11.8c0,3.9-0.1,7.5-0.2,10.8
			c-0.1,1.6-0.3,3.3-0.5,5.2c-0.2,1.9-0.6,3.6-1.3,5.2c-0.6,1.6-1.6,2.9-3,3.9c-1.3,1-3.1,1.5-5.4,1.4c-3.3-0.2-5.7-1.7-7.1-4.3
			c-1.4-2.7-2.3-6.4-2.5-11.2c0-2.5,0-5.3-0.1-8.5c-0.1-3.2-0.1-6.5-0.2-9.8c-0.1-3.3-0.1-6.5-0.1-9.7c0-3.1,0-6,0-8.6
			c0-1.5,0-3.3-0.1-5.4c-0.1-2.1,0-4.3,0.1-6.6c0.1-2.2,0.4-4.4,0.8-6.5c0.4-2.1,1.1-3.8,2.1-5.2c0.7-0.9,1.8-1.5,3.2-2
			c1.4-0.5,2.9-0.7,4.4-0.7c1.5,0,3,0.3,4.5,0.8c1.4,0.5,2.5,1.3,3.1,2.2c0.4,0.6,0.7,1.5,1,2.7c0.2,1.2,0.4,2.5,0.6,3.9
			c0.2,1.4,0.3,2.9,0.3,4.5C278.3,60.6,278.3,62,278.3,63.2z M272.2,30.9c-3.3,0.9-6.1,0.5-8.2-1c-2.2-1.5-3.5-3.9-4.1-7
			c-0.4-2.2-0.3-4.2,0.5-5.9c0.7-1.7,1.9-3,3.4-3.9c1.5-0.9,3.2-1.3,5.1-1.2c1.9,0.1,3.8,0.9,5.8,2.2c1.8,1.3,3.1,2.8,3.9,4.5
			c0.8,1.7,1.1,3.4,0.8,5c-0.3,1.6-1,3.1-2.2,4.4C276,29.3,274.4,30.3,272.2,30.9z"/>
		<path class="st0" d="M351.9,62.3c0.9,1.5,1.3,3.1,1.4,4.8c0.1,1.7-0.3,3.3-1.2,4.8c-1,1.9-2.3,3.2-4.1,3.9
			c-1.8,0.7-3.7,0.8-5.8,0.2c-1-0.2-1.8-0.6-2.6-1.1c-0.7-0.5-1.5-1.1-2.3-1.7c-0.8-0.6-1.7-1.1-2.7-1.7c-1-0.5-2.3-0.9-3.9-1.1
			c-1.6-0.2-3.3-0.2-5.2,0c-1.9,0.2-3.5,0.6-5,1.3c-2.3,1.2-4.2,3-5.6,5.4c-1.4,2.4-2.3,5-2.7,7.7c-0.4,2.7-0.3,5.5,0.2,8.2
			c0.6,2.8,1.7,5.1,3.4,7c1.3,1.5,3,2.7,5,3.7c2.1,1,4.1,1.5,6,1.8c1.8,0.2,3.6,0.2,5.4-0.1c1.8-0.3,3.6-0.7,5.3-1.2
			c1.3-0.5,2.7-1.3,4.3-2.2c1.6-0.9,3.1-1.5,4.6-1.7c1.9,0,3.4,0.5,4.5,1.5c1.1,1,1.8,2.2,2.2,3.7c0.4,1.4,0.5,3,0.2,4.6
			c-0.3,1.6-0.9,3-1.8,4.2c-1.3,1.6-3.1,3.1-5.4,4.6c-2.3,1.4-4.6,2.5-6.7,3.1c-2.6,0.9-5.4,1.3-8.6,1.4c-3.1,0.1-6.1,0-8.9-0.3
			c-1.3-0.2-2.6-0.5-4-0.8c-1.4-0.3-2.7-0.7-4-1.1c-4.7-1.7-8.6-4.1-11.8-7.3c-3.1-3.1-5.5-6.7-7.2-10.6c-1.7-3.9-2.6-8.2-2.8-12.6
			c-0.2-4.5,0.3-8.9,1.6-13.3c1.2-4.2,2.6-7.7,4.4-10.6c1.8-2.9,3.8-5.3,6.2-7.1c2.4-1.9,5.1-3.4,8.1-4.5c3-1.1,6.3-2.1,9.9-3
			c3.7-0.7,7.7-0.7,11.8,0c4.2,0.7,7.9,2.1,11.2,4.2C348,57.8,350.2,59.7,351.9,62.3z"/>
		<path class="st0" d="M404.5,95.7c-2-1.3-4.3-2.3-6.8-3c-2.5-0.7-5.1-1.4-7.7-2.1c-2.6-0.6-5.1-1.4-7.6-2.2
			c-2.5-0.8-4.7-1.9-6.7-3.4c-4.4-3.3-6.9-7.4-7.6-12.2c-0.7-4.9,0.3-9.7,3.1-14.6c1.5-2.6,3.5-4.7,5.9-6.3c2.5-1.7,5.1-2.9,8.1-3.8
			c2.9-0.9,5.9-1.4,9-1.5c3.1-0.1,6,0.1,8.8,0.5c1.8,0.3,3.7,0.8,5.8,1.4c2,0.6,3.9,1.4,5.7,2.3c1.8,1,3.4,2.2,4.8,3.6
			c1.4,1.4,2.5,3.2,3.1,5.4c0.4,1.4,0.5,2.7,0.2,4c-0.3,1.3-0.8,2.3-1.6,3.2c-0.8,0.9-1.8,1.5-3,1.9c-1.2,0.4-2.5,0.5-3.9,0.3
			c-1.6-0.3-3.1-0.8-4.5-1.4c-1.4-0.6-2.8-1.3-4.2-2.1c-1.4-0.7-2.8-1.4-4.2-1.9c-1.4-0.5-3-0.8-4.6-0.8c-2.5-0.1-4.5,0.3-6.1,1.3
			c-1.6,1-2.7,2.1-3.3,3.5c-0.6,1.4-0.5,2.9,0.2,4.5c0.7,1.6,2.2,3,4.4,4.2c2,1.1,4.3,1.9,6.7,2.6c2.5,0.6,4.9,1.3,7.3,1.9
			c2.4,0.6,4.7,1.4,7,2.2c2.3,0.9,4.3,2,6.2,3.5c3.5,2.9,5.7,6.2,6.5,10.1s0.6,7.6-0.7,11.4c-1.3,3.7-3.5,7-6.6,9.9
			s-6.9,4.8-11.1,5.8c-3.1,0.6-6.4,1-10,1c-3.6,0-7.1-0.4-10.6-1.1c-3.5-0.7-6.8-1.9-9.9-3.5c-3.1-1.6-5.8-3.6-7.9-6.1
			c-1.5-1.7-2.3-3.7-2.3-5.8c-0.1-2.2,0.4-4.1,1.3-5.8c0.9-1.7,2.2-2.8,3.9-3.4c1.7-0.6,3.6-0.3,5.8,1.1c1.7,1.2,3.7,2.3,6.1,3.4
			c2.3,1.1,4.7,2,7,2.6c2.3,0.6,4.6,1,6.8,1c2.2,0,4.1-0.5,5.7-1.4c2.3-1.5,3.6-3.2,3.7-5.2C406.7,98.3,406,96.8,404.5,95.7z"/>
	</g>
	<linearGradient id="SVGID_1_" gradientUnits="userSpaceOnUse" x1="127.8191" y1="127.8541" x2="5.3717" y2="5.4067">
		<stop  offset="0" style="stop-color:#04509E"/>
		<stop  offset="1" style="stop-color:#32A1DB"/>
	</linearGradient>
	<path class="st1" d="M115.6,0.4H17.6C8,0.4,0.3,8.1,0.3,17.6v98.1c0,9.5,7.7,17.2,17.2,17.2h98.1c9.5,0,17.2-7.7,17.2-17.2V17.6
		C132.9,8.1,125.2,0.4,115.6,0.4z M118.3,104.9c0,7.4-6,13.5-13.5,13.5H28.3c-7.4,0-13.5-6-13.5-13.5V28.4c0-7.4,6-13.5,13.5-13.5
		h76.5c7.4,0,13.5,6,13.5,13.5V104.9z"/>
</g>
</svg>
